<mxfile host="app.diagrams.net" modified="2022-09-07T17:16:25.246Z" agent="5.0 (X11; Linux x86_64) AppleWebKit/537.36 (KHTML, like Gecko) Chrome/105.0.0.0 Safari/537.36" etag="i-1cZRvvPrwXazyp-eoV" version="20.2.8" type="github">
  <diagram id="R2lEEEUBdFMjLlhIrx00" name="Page-1">
    <mxGraphModel dx="1872" dy="776" grid="1" gridSize="10" guides="1" tooltips="1" connect="1" arrows="1" fold="1" page="1" pageScale="1" pageWidth="850" pageHeight="1100" math="0" shadow="0" extFonts="Permanent Marker^https://fonts.googleapis.com/css?family=Permanent+Marker">
      <root>
        <mxCell id="0" />
        <mxCell id="1" parent="0" />
        <mxCell id="v3rb6W1eC0JRBhHd2svC-5" style="edgeStyle=orthogonalEdgeStyle;rounded=0;orthogonalLoop=1;jettySize=auto;html=1;" edge="1" parent="1" source="v3rb6W1eC0JRBhHd2svC-1" target="v3rb6W1eC0JRBhHd2svC-3">
          <mxGeometry relative="1" as="geometry" />
        </mxCell>
        <mxCell id="v3rb6W1eC0JRBhHd2svC-10" style="edgeStyle=orthogonalEdgeStyle;rounded=0;orthogonalLoop=1;jettySize=auto;html=1;" edge="1" parent="1" source="v3rb6W1eC0JRBhHd2svC-1" target="v3rb6W1eC0JRBhHd2svC-2">
          <mxGeometry relative="1" as="geometry" />
        </mxCell>
        <mxCell id="v3rb6W1eC0JRBhHd2svC-12" style="edgeStyle=orthogonalEdgeStyle;rounded=0;orthogonalLoop=1;jettySize=auto;html=1;" edge="1" parent="1" source="v3rb6W1eC0JRBhHd2svC-1" target="v3rb6W1eC0JRBhHd2svC-11">
          <mxGeometry relative="1" as="geometry">
            <Array as="points">
              <mxPoint x="100" y="190" />
              <mxPoint x="100" y="150" />
              <mxPoint y="150" />
            </Array>
          </mxGeometry>
        </mxCell>
        <mxCell id="v3rb6W1eC0JRBhHd2svC-1" value="FormularioNotificacao" style="whiteSpace=wrap;html=1;align=center;" vertex="1" parent="1">
          <mxGeometry x="110" y="170" width="160" height="40" as="geometry" />
        </mxCell>
        <mxCell id="v3rb6W1eC0JRBhHd2svC-2" value="FormularioLocalizacao" style="whiteSpace=wrap;html=1;align=center;" vertex="1" parent="1">
          <mxGeometry x="105" y="20" width="170" height="40" as="geometry" />
        </mxCell>
        <mxCell id="v3rb6W1eC0JRBhHd2svC-3" value="FormularioNotificacao_FormularioFoto" style="whiteSpace=wrap;html=1;align=center;" vertex="1" parent="1">
          <mxGeometry x="70" y="280" width="240" height="40" as="geometry" />
        </mxCell>
        <mxCell id="v3rb6W1eC0JRBhHd2svC-7" style="edgeStyle=orthogonalEdgeStyle;rounded=0;orthogonalLoop=1;jettySize=auto;html=1;" edge="1" parent="1" source="v3rb6W1eC0JRBhHd2svC-6" target="v3rb6W1eC0JRBhHd2svC-3">
          <mxGeometry relative="1" as="geometry" />
        </mxCell>
        <mxCell id="v3rb6W1eC0JRBhHd2svC-6" value="FormularioFoto" style="whiteSpace=wrap;html=1;align=center;" vertex="1" parent="1">
          <mxGeometry x="140" y="370" width="100" height="40" as="geometry" />
        </mxCell>
        <mxCell id="v3rb6W1eC0JRBhHd2svC-11" value="ReparoTipo" style="whiteSpace=wrap;html=1;align=center;" vertex="1" parent="1">
          <mxGeometry x="-50" y="90" width="100" height="40" as="geometry" />
        </mxCell>
      </root>
    </mxGraphModel>
  </diagram>
</mxfile>
